<svg width="36" height="20" viewBox="0 0 36 20" fill="none" xmlns="http://www.w3.org/2000/svg">
<g clip-path="url(#clip0_25_667)">
<path d="M7.10484 19.4402C10.2197 19.4402 12.7448 16.915 12.7448 13.8002C12.7448 10.6853 10.2197 8.16016 7.10484 8.16016C3.98996 8.16016 1.46484 10.6853 1.46484 13.8002C1.46484 16.915 3.98996 19.4402 7.10484 19.4402Z" stroke="white" stroke-opacity="0.3" stroke-miterlimit="10" stroke-linecap="round" stroke-linejoin="round"/>
<path d="M28.8949 19.4402C32.0098 19.4402 34.5349 16.915 34.5349 13.8002C34.5349 10.6853 32.0098 8.16016 28.8949 8.16016C25.78 8.16016 23.2549 10.6853 23.2549 13.8002C23.2549 16.915 25.78 19.4402 28.8949 19.4402Z" stroke="white" stroke-opacity="0.3" stroke-miterlimit="10" stroke-linecap="round" stroke-linejoin="round"/>
<path d="M28.8948 13.8001L25.8948 0.560059H23.1348" stroke="white" stroke-opacity="0.3" stroke-miterlimit="10" stroke-linecap="round" stroke-linejoin="round"/>
<path d="M15.9649 0.920166H13.1349L16.6449 13.7802H7.25488L14.3549 4.42017H26.7649L16.6449 13.7802" stroke="white" stroke-opacity="0.3" stroke-miterlimit="10" stroke-linecap="round" stroke-linejoin="round"/>
</g>
<defs>
<clipPath id="clip0_25_667">
<rect width="34.07" height="19.88" fill="white" transform="translate(0.964844 0.0600586)"/>
</clipPath>
</defs>
</svg>
