<svg width="25" height="25" viewBox="0 0 25 25" fill="none" xmlns="http://www.w3.org/2000/svg">
<g clip-path="url(#clip0_25_1089)">
<path d="M8.4082 11.0742C7.69531 10.9326 7.03125 11.5088 7.03125 12.2363V14.6972C7.03125 15.1953 7.37793 15.5957 7.84668 15.7714C8.73535 16.1035 9.375 16.9629 9.375 17.9687C9.375 19.2627 8.3252 20.3125 7.03125 20.3125C5.7373 20.3125 4.6875 19.2627 4.6875 17.9687V5.85934C4.6875 5.20992 4.16504 4.68746 3.51562 4.68746H1.17188C0.522461 4.68746 0 5.20992 0 5.85934V17.9687C0 22.3388 4.00879 25.791 8.54492 24.8388C11.2012 24.2822 13.3447 22.1338 13.9014 19.4824C14.751 15.4345 12.0947 11.8066 8.4082 11.0742ZM10.2051 -3.72879e-05C9.75586 -0.0244514 9.375 0.331994 9.375 0.781213V2.32418C9.375 2.73922 9.69727 3.08102 10.1074 3.10055C16.4258 3.44235 21.5039 8.5693 21.8701 14.8925C21.8945 15.3027 22.2363 15.625 22.6465 15.625H24.2139C24.6631 15.625 25.0195 15.2441 24.9951 14.7949C24.5801 6.82613 18.1738 0.419885 10.2051 -3.72879e-05ZM10.2197 4.68746C9.76562 4.65328 9.375 5.01461 9.375 5.4736V7.04098C9.375 7.45113 9.69238 7.78805 10.0977 7.81735C13.8477 8.12496 16.8359 11.1474 17.1729 14.9072C17.2119 15.3125 17.5439 15.625 17.9492 15.625H19.5215C19.9756 15.625 20.3418 15.2343 20.3076 14.7802C19.8975 9.40426 15.5957 5.1025 10.2197 4.68746Z" fill="white" fill-opacity="0.5"/>
</g>
<defs>
<clipPath id="clip0_25_1089">
<rect width="25" height="25" fill="white"/>
</clipPath>
</defs>
</svg>
