<svg xmlns="http://www.w3.org/2000/svg" viewBox="0 0 191 63.93"><defs><style>.cls-1{fill:#3db349;}.cls-2{fill:#1652a1;}.cls-3{fill:#7a7b7e;}.cls-4,.cls-5{fill:none;stroke:#9b9b9a;stroke-linecap:round;}.cls-4{stroke-linejoin:round;}.cls-5{stroke-dasharray:4 3;}</style></defs><g id="Layer_2" data-name="Layer 2"><g id="Layer_1-2" data-name="Layer 1"><path class="cls-1" d="M34.48,43.44V31.83H26.06V27.14H48.78v4.69H40.54V43.44ZM48.78,8.81V13.5H32.16v4.42H48.78v4.69H28.5a2.35,2.35,0,0,1-1.83-.67,3.49,3.49,0,0,1-.61-2.29V8.81Z"/><path class="cls-1" d="M73,5.23H56.5V0H79.25V14.21H62.82v3.44H79.25v5H58.91a2.1,2.1,0,0,1-1.8-.77,5.93,5.93,0,0,1-.61-3.12V8.61H73Zm-8,38.21V31.83H56.51V27.14H79.23v4.69H71V43.44Z"/><path class="cls-2" d="M94,8.81v9.42h16.27v4.69H90.33a2.47,2.47,0,0,1-1.8-.56,3.37,3.37,0,0,1-.6-2.25V8.81Zm2.18,34.72V31.91H87.73V27.23h22.72v4.68h-8.24V43.53Z"/><path class="cls-2" d="M140.86,28.64a3.43,3.43,0,0,1-.61,2.36,2.79,2.79,0,0,1-2,.63H120.57a2.71,2.71,0,0,1-1.92-.59,3.57,3.57,0,0,1-.65-2.4V8.81h6.36v8.73h10.15V8.81h6.35Zm-16.5-2h10.15V22.32H124.36ZM146.52,8.81h5.4V31.93h-5.4Z"/><path class="cls-3" d="M45.25,62.21V50.45h2.22v5.17l4-5.17h2.71l-4.67,5.83,4.74,5.93H51.47l-4-5.12v5.12Z"/><path class="cls-3" d="M55.9,53.9a5.84,5.84,0,0,1,1.39-2,6.25,6.25,0,0,1,2-1.26,6.61,6.61,0,0,1,4.69,0,6,6,0,0,1,2,1.28,6.28,6.28,0,0,1,1.38,2,5.77,5.77,0,0,1,.5,2.35,6.31,6.31,0,0,1-.43,2.3,5.89,5.89,0,0,1-1.2,1.9,6.55,6.55,0,0,1-2.1,1.47,6.22,6.22,0,0,1-2.51.51,6.08,6.08,0,0,1-2.51-.53A6.51,6.51,0,0,1,57,60.41a6.28,6.28,0,0,1-1.15-1.9,6.63,6.63,0,0,1-.39-2.26A6.09,6.09,0,0,1,55.9,53.9ZM58,57.83a3.69,3.69,0,0,0,.83,1.26,3.8,3.8,0,0,0,1.29.88,3.57,3.57,0,0,0,1.48.31,3.76,3.76,0,0,0,2.83-1.16,3.94,3.94,0,0,0,1.13-2.88,3.24,3.24,0,0,0-.29-1.39,3.72,3.72,0,0,0-.81-1.22,3.54,3.54,0,0,0-2.86-1.25,3.83,3.83,0,0,0-1.46.26,3.42,3.42,0,0,0-1.21.82A3.74,3.74,0,0,0,58,54.75a3.79,3.79,0,0,0-.31,1.52A4.49,4.49,0,0,0,58,57.83Z"/><path class="cls-3" d="M76.89,56.13a4.1,4.1,0,0,1-2,1.34l3.61,4.74H75.7l-3.34-4.52h-.13v4.52H70V50.45h3a15,15,0,0,1,1.58.06,3.37,3.37,0,0,1,1.32.43,3,3,0,0,1,1.24,1.27A3.4,3.4,0,0,1,77.6,54,3.35,3.35,0,0,1,76.89,56.13Zm-2-3.31a3,3,0,0,0-1.64-.35h-1v3.2h1a2.91,2.91,0,0,0,1.67-.36,1.37,1.37,0,0,0,.53-1.22A1.47,1.47,0,0,0,74.87,52.82Z"/><path class="cls-3" d="M80,62.21V50.45h6.6v2H82.2v2.82h4.38v2H82.2v2.83h4.38v2.08Z"/><path class="cls-3" d="M89.89,62.21H87.52l4.74-11.76h2L99,62.21H96.57L95.3,59H91.19Zm3.37-8.64L92,56.84h2.5Z"/><path class="cls-3" d="M106,62.21V50.45h2.94l3.18,8.19,3.15-8.19h2.93V62.21h-2.12V53.92l-3.18,8.29h-1.57L108.15,54v8.24Z"/><path class="cls-3" d="M120.91,53.9a5.84,5.84,0,0,1,1.39-2,6.21,6.21,0,0,1,2-1.26,6.61,6.61,0,0,1,4.69,0,5.8,5.8,0,0,1,2,1.28,6.16,6.16,0,0,1,1.39,2,5.76,5.76,0,0,1,.49,2.35,6.11,6.11,0,0,1-.43,2.3,5.7,5.7,0,0,1-1.19,1.9,6.78,6.78,0,0,1-2.1,1.47,6.27,6.27,0,0,1-2.52.51,6.11,6.11,0,0,1-2.51-.53A6.47,6.47,0,0,1,122,60.41a6.28,6.28,0,0,1-1.15-1.9,6.64,6.64,0,0,1-.4-2.26A5.92,5.92,0,0,1,120.91,53.9ZM123,57.83a3.69,3.69,0,0,0,.83,1.26,3.86,3.86,0,0,0,1.28.88,3.57,3.57,0,0,0,1.48.31,3.79,3.79,0,0,0,2.84-1.16,3.94,3.94,0,0,0,1.13-2.88,3.39,3.39,0,0,0-.29-1.39,3.72,3.72,0,0,0-.81-1.22,4.08,4.08,0,0,0-1.29-1,3.91,3.91,0,0,0-1.58-.29,3.87,3.87,0,0,0-1.46.26,3.42,3.42,0,0,0-1.21.82,3.88,3.88,0,0,0-.89,1.29,4,4,0,0,0-.3,1.52A4.49,4.49,0,0,0,123,57.83Z"/><path class="cls-3" d="M140.89,51.31a3.08,3.08,0,0,1,1.05,2.49,2.51,2.51,0,0,1-.24,1.08,2.78,2.78,0,0,1-.7.92,2.79,2.79,0,0,1,1.13,1.13,3,3,0,0,1,.42,1.59,3.83,3.83,0,0,1-.35,1.59,3.51,3.51,0,0,1-.89,1.22,3.89,3.89,0,0,1-1.5.73,8,8,0,0,1-1.73.15h-3V50.45h2.86A4.61,4.61,0,0,1,140.89,51.31Zm-2.53,8.86a2.67,2.67,0,0,0,1.55-.34,1.31,1.31,0,0,0,.46-1.12,1.6,1.6,0,0,0-.5-1.29,2.35,2.35,0,0,0-1.51-.41h-1.14v3.16Zm-.86-5a3.66,3.66,0,0,0,1.72-.28,1.45,1.45,0,0,0,.1-2.08A2.44,2.44,0,0,0,138,52.5h-.73v2.64Z"/><path class="cls-3" d="M144.73,62.21V50.45H147V62.21Z"/><path class="cls-3" d="M149.53,62.21V50.45h2.23v9.68h3.78v2.08Z"/><path class="cls-3" d="M157.53,62.21V50.45h2.23V62.21Z"/><path class="cls-3" d="M164,62.21V52.48h-2.35v-2h6.94v2H166.2v9.73Z"/><path class="cls-3" d="M175.4,62.21h-2.23V57.87l-3.72-7.42H172l2.37,5,2.34-5h2.48L175.4,58Z"/><path class="cls-4" d="M11.74,57.81a5.62,5.62,0,1,1-5.62-5.62A5.62,5.62,0,0,1,11.74,57.81Zm16.11-5.62a5.62,5.62,0,1,0,5.62,5.62A5.62,5.62,0,0,0,27.85,52.19Zm0,5.62-3-13.2H22.11M15.64,57.79l10.08-9.33H13.35L6.27,57.79h9.37L12.13,45H15"/><path class="cls-4" d="M171.45,17.53A2.5,2.5,0,1,1,169,15,2.5,2.5,0,0,1,171.45,17.53Zm4.4,12c-1.58-10.87-8.87-6.49-8.87-6.49-1.65,9.34-8.81,5.85-8.81,5.85m5.91,14.53s-.52-6.81,4.8-9.57,3.16-6.72,1.78-11.66l-3.08.71s.22,9.08,1,11.1m1.5,1.37a25.37,25.37,0,0,0,4.8,6.93"/><path class="cls-5" d="M6.27,43.43S5.92,25.35,21.2,22.92"/><path class="cls-5" d="M181.11,25.86s18.41,11.61,3.68,29.28"/></g></g></svg>