<?xml version="1.0" encoding="utf-8"?>
<!-- Generator: Adobe Illustrator 26.2.1, SVG Export Plug-In . SVG Version: 6.00 Build 0)  -->
<svg version="1.1" id="Layer_1" xmlns="http://www.w3.org/2000/svg" xmlns:xlink="http://www.w3.org/1999/xlink" x="0px" y="0px"
	 viewBox="0 0 191 63.9" style="enable-background:new 0 0 191 63.9;" xml:space="preserve">
<style type="text/css">
	.st0{fill:#3DB349;}
	.st1{fill:#1652A1;}
	.st2{fill:none;stroke:#9B9B9A;stroke-linecap:round;stroke-linejoin:round;}
	.st3{fill:none;stroke:#9B9B9A;stroke-linecap:round;stroke-dasharray:4,3;}
	.st4{fill:none;stroke:#9B9B9A;stroke-miterlimit:10;}
	.st5{fill:#7A7B7E;}
</style>
<g id="Layer_2_00000070100833493812113310000000431972682032210860_">
	<g id="Layer_1-2">
		<path class="st0" d="M34.5,43.4V31.8h-8.4v-4.7h22.7v4.7h-8.2v11.6H34.5z M48.8,8.8v4.7H32.2v4.4h16.6v4.7H28.5
			c-0.7,0.1-1.3-0.2-1.8-0.7c-0.5-0.7-0.7-1.5-0.6-2.3V8.8H48.8z"/>
		<path class="st0" d="M73,5.2H56.5V0h22.8v14.2H62.8v3.4h16.4v5H58.9c-0.7,0.1-1.4-0.2-1.8-0.8c-0.5-1-0.7-2-0.6-3.1V8.6H73V5.2z
			 M65,43.4V31.8h-8.5v-4.7h22.7v4.7H71v11.6H65z"/>
		<path class="st1" d="M94,8.8v9.4h16.3v4.7H90.3c-0.7,0.1-1.3-0.1-1.8-0.6c-0.5-0.7-0.7-1.5-0.6-2.2V8.8H94z M96.2,43.5V31.9h-8.4
			v-4.7h22.7v4.7h-8.2v11.6L96.2,43.5z"/>
		<path class="st1" d="M140.9,28.6c0.1,0.8-0.1,1.7-0.6,2.4c-0.6,0.5-1.3,0.7-2,0.6h-17.7c-0.7,0.1-1.4-0.2-1.9-0.6
			c-0.5-0.7-0.7-1.5-0.7-2.4V8.8h6.4v8.7h10.1V8.8h6.4V28.6z M124.4,26.6h10.1v-4.3h-10.1V26.6z M146.5,8.8h5.4v23.1h-5.4V8.8z"/>
		<path class="st2" d="M171.4,17.5c0,1.4-1.1,2.5-2.5,2.5c-1.4,0-2.5-1.1-2.5-2.5c0-1.4,1.1-2.5,2.5-2.5c0,0,0,0,0,0
			C170.4,15,171.5,16.2,171.4,17.5z M175.8,29.5C174.3,18.7,167,23,167,23c-1.6,9.3-8.8,5.9-8.8,5.9 M164.1,43.4
			c0,0-0.5-6.8,4.8-9.6s3.2-6.7,1.8-11.7l-3.1,0.7c0,0,0.2,9.1,1,11.1 M170.1,35.4c1.2,2.6,2.8,4.9,4.8,6.9"/>
		<path class="st3" d="M6.3,43.4c0,0-0.3-18.1,14.9-20.5"/>
		<path class="st3" d="M181.1,25.9c0,0,18.4,11.6,3.7,29.3"/>
		<g>
			<path class="st4" d="M3.2,47.4c-1.4,0.8-1.4,3.3-1,4.8c0.6,2.3,2.5,3.5,4.2,4.4c1.4,0.8,3.8,2.2,5.5,1.2c1-0.6,1.5-1.9,1.5-2.9
				C13.4,50.5,5.8,45.8,3.2,47.4z"/>
			<path class="st4" d="M14.9,57.4c-1.1,1-1.1,3,0,4.2c1.1,1.1,2.9,1.2,4,0.1c1-0.9,1-2.4,0.4-3.4C18.5,56.8,16.2,56.2,14.9,57.4z"
				/>
			<path class="st4" d="M18.3,44.1c-1.4,0.3-2.2,2-2.4,3.3c-0.4,2.3,1.3,4,2.6,5.5c1.1,1.2,3.1,3.3,5.2,2.9c0.8-0.2,1.7-0.7,2.1-1.6
				C27.6,50.8,21.7,43.3,18.3,44.1z"/>
			<path class="st4" d="M26.3,56.8c-1.4,0.5-2.1,1.9-1.9,3.2c0.3,1.9,2.7,3,4.3,2.1c1.5-0.8,1.9-3.3,0.7-4.6
				C28.7,56.7,27.4,56.4,26.3,56.8z"/>
		</g>
		<g>
			<path class="st5" d="M51.5,50.6h3.6c0.9,0,1.7,0.1,2.5,0.4c0.7,0.3,1.4,0.6,1.9,1.1c0.5,0.5,0.9,1.1,1.2,1.8
				c0.3,0.7,0.4,1.5,0.4,2.3c0,0.9-0.1,1.7-0.3,2.4c-0.2,0.7-0.6,1.3-1.1,1.9c-0.5,0.5-1.2,1-1.9,1.3c-0.8,0.3-1.7,0.4-2.8,0.4h-3.4
				L51.5,50.6z M55.1,60.3c1.3,0,2.3-0.4,3-1.1c0.6-0.7,1-1.7,1-3c0-0.6-0.1-1.1-0.3-1.6s-0.4-0.9-0.7-1.2c-0.3-0.3-0.7-0.6-1.2-0.8
				c-0.5-0.2-1-0.3-1.6-0.3h-1.6v8H55.1z"/>
			<path class="st5" d="M77.4,50.6v5.7c0,1,0,1.8-0.1,2.6c-0.1,0.7-0.3,1.4-0.6,1.9c-0.3,0.5-0.8,0.9-1.5,1.2
				c-0.7,0.3-1.5,0.4-2.6,0.5c-1.1,0-1.9-0.1-2.5-0.4s-1.1-0.7-1.4-1.2c-0.3-0.5-0.6-1.1-0.7-1.9c-0.1-0.7-0.2-1.6-0.2-2.6v-5.8h2.1
				l0,5.9c0,0.5,0.1,1.1,0.1,1.6c0,0.5,0.2,0.9,0.3,1.3c0.2,0.4,0.5,0.7,0.8,0.9c0.4,0.2,0.9,0.4,1.5,0.4c0.7,0,1.2-0.1,1.5-0.4
				c0.4-0.3,0.7-0.6,0.8-1c0.2-0.4,0.3-0.9,0.3-1.4s0.1-1,0.1-1.5l0-5.9H77.4z"/>
			<path class="st5" d="M87.7,50.6c0.5,0,1,0.1,1.5,0.2s0.9,0.3,1.3,0.6c0.4,0.3,0.7,0.6,0.9,1c0.2,0.4,0.3,0.9,0.3,1.5
				c0,0.3-0.1,0.7-0.2,1c-0.1,0.3-0.3,0.6-0.5,0.8c-0.2,0.2-0.4,0.4-0.7,0.6c-0.3,0.1-0.5,0.2-0.8,0.3c0.4,0.2,0.7,0.5,0.9,1
				c0.3,0.4,0.5,0.9,0.7,1.5c0.2,0.6,0.4,1.1,0.7,1.7c0.2,0.6,0.5,1.1,0.7,1.5h-2.5c-0.2-0.6-0.4-1.2-0.6-1.8s-0.4-1.2-0.7-1.8
				c-0.2-0.4-0.4-0.6-0.6-0.8c-0.2-0.2-0.5-0.3-0.7-0.4c-0.3-0.1-0.5-0.1-0.8-0.1c-0.3,0-0.6,0-1,0v4.8h-2l0-11.6H87.7z M87.5,55.5
				c0.3,0,0.5,0,0.8-0.1c0.3-0.1,0.5-0.2,0.7-0.3c0.2-0.1,0.4-0.3,0.5-0.5c0.1-0.2,0.2-0.5,0.2-0.7s-0.1-0.5-0.2-0.7
				c-0.1-0.2-0.3-0.3-0.5-0.5c-0.2-0.1-0.4-0.2-0.7-0.3c-0.3-0.1-0.5-0.1-0.7-0.1h-1.8v3.2H87.5z"/>
			<path class="st5" d="M108.7,50.6v5.7c0,1,0,1.8-0.1,2.6c-0.1,0.7-0.3,1.4-0.6,1.9c-0.3,0.5-0.8,0.9-1.5,1.2
				c-0.7,0.3-1.5,0.4-2.6,0.5c-1.1,0-1.9-0.1-2.5-0.4c-0.6-0.3-1.1-0.7-1.4-1.2c-0.3-0.5-0.6-1.1-0.7-1.9C99,58.2,99,57.3,99,56.3
				v-5.8h2.1l0,5.9c0,0.5,0.1,1.1,0.1,1.6c0,0.5,0.2,0.9,0.3,1.3s0.5,0.7,0.8,0.9c0.4,0.2,0.9,0.4,1.5,0.4c0.7,0,1.2-0.1,1.5-0.4
				s0.7-0.6,0.8-1c0.2-0.4,0.3-0.9,0.3-1.4c0-0.5,0.1-1,0.1-1.5l0-5.9H108.7z"/>
			<path class="st5" d="M115.4,50.6h2.1l5.2,8.4v-8.4h1.9v11.6h-2.2l-5.1-8.2v8.2h-1.9V50.6z"/>
			<path class="st5" d="M141,50.6v5.7c0,1,0,1.8-0.1,2.6c-0.1,0.7-0.3,1.4-0.6,1.9c-0.3,0.5-0.8,0.9-1.5,1.2
				c-0.7,0.3-1.5,0.4-2.6,0.5c-1.1,0-1.9-0.1-2.5-0.4c-0.6-0.3-1.1-0.7-1.4-1.2c-0.3-0.5-0.6-1.1-0.7-1.9c-0.1-0.7-0.2-1.6-0.2-2.6
				v-5.8h2.1l0,5.9c0,0.5,0.1,1.1,0.1,1.6c0,0.5,0.2,0.9,0.3,1.3s0.5,0.7,0.8,0.9c0.4,0.2,0.9,0.4,1.5,0.4c0.7,0,1.2-0.1,1.5-0.4
				s0.7-0.6,0.8-1c0.2-0.4,0.3-0.9,0.3-1.4c0-0.5,0.1-1,0.1-1.5l0-5.9H141z"/>
			<path class="st5" d="M151.2,50.6c0.3,0,0.6,0,1,0c0.3,0,0.6,0.1,1,0.2c0.3,0.1,0.6,0.2,0.9,0.3c0.3,0.1,0.5,0.3,0.8,0.6
				c0.4,0.4,0.6,0.9,0.7,1.4s0,1-0.1,1.5c-0.1,0.4-0.3,0.7-0.6,1c-0.3,0.2-0.6,0.4-0.9,0.5c0.7,0.3,1.2,0.6,1.6,1.1s0.5,1,0.5,1.8
				c0,0.6-0.1,1.2-0.4,1.6c-0.3,0.4-0.6,0.7-1,1c-0.4,0.2-0.9,0.4-1.4,0.5s-1,0.2-1.5,0.2h-4.1V50.6H151.2z M151.1,55.3
				c0.3,0,0.6,0,0.9-0.1c0.3,0,0.5-0.1,0.8-0.2c0.2-0.1,0.4-0.3,0.5-0.4c0.1-0.2,0.2-0.4,0.2-0.8c0-0.3-0.1-0.5-0.2-0.7
				c-0.1-0.2-0.3-0.3-0.4-0.5c-0.2-0.1-0.4-0.2-0.6-0.2c-0.2,0-0.5-0.1-0.7-0.1h-1.8v3H151.1z M151.7,60.4c0.3,0,0.6,0,0.8-0.1
				c0.3-0.1,0.5-0.2,0.7-0.3c0.2-0.1,0.4-0.3,0.5-0.5c0.1-0.2,0.2-0.5,0.2-0.8c0-0.7-0.2-1.2-0.7-1.4c-0.5-0.2-1.2-0.4-2.1-0.4h-1.3
				v3.4H151.7z"/>
			<path class="st5" d="M164.6,50.6v11.6h-1.9V50.6H164.6z"/>
		</g>
	</g>
</g>
</svg>
