<?xml version="1.0" encoding="utf-8"?>
<!-- Generator: Adobe Illustrator 14.0.0, SVG Export Plug-In . SVG Version: 6.00 Build 43363)  -->
<!DOCTYPE svg PUBLIC "-//W3C//DTD SVG 1.1//EN" "http://www.w3.org/Graphics/SVG/1.1/DTD/svg11.dtd">
<svg version="1.1" id="Layer_1" xmlns="http://www.w3.org/2000/svg" xmlns:xlink="http://www.w3.org/1999/xlink" x="0px" y="0px"
	 width="206.082px" height="65.12px" viewBox="0 0 206.082 65.12" enable-background="new 0 0 206.082 65.12" xml:space="preserve">
	<g>
		<g>
			<path fill="#FFFFFF" d="M43.154,47.487v-7.781H31.609v-5.505H59.46v5.505H49.364v7.781H43.154z M59.46,13.852v5.506H37.864v5.197
				H59.46v5.506H34.604c-0.999,0-1.748-0.265-2.246-0.792c-0.5-0.558-0.75-1.454-0.75-2.688V13.852H59.46z"/>
		</g>
	</g>
	<g>
		<g>
			<path fill="#FFFFFF" d="M76.272,47.487V27.573H64.726v-5.505h27.852v5.505H82.482v19.915H76.272z M86.123,5.286H64.726V0h27.852
				v12.068H71.247v2.07h21.331v5.066H67.678c-0.999,0-1.733-0.22-2.202-0.661c-0.501-0.529-0.75-1.41-0.75-2.643V7.312h21.396V5.286z
				"/>
		</g>
	</g>
	<g>
		<g>
			<path fill="#FFFFFF" d="M109.388,47.487v-8.662H97.842V33.32h27.852v5.505h-10.096v8.662H109.388z M104.142,13.852v8.721h21.552
				v5.505h-24.856c-1.028,0-1.776-0.22-2.245-0.66c-0.501-0.529-0.75-1.409-0.75-2.643V13.852H104.142z"/>
		</g>
	</g>
	<g>
		<g>
			<path fill="#FFFFFF" d="M155.832,35.771c0,1.263-0.235,2.129-0.704,2.599c-0.411,0.441-1.189,0.676-2.335,0.705h-20.32
				c-0.998,0-1.732-0.221-2.202-0.661c-0.5-0.528-0.749-1.409-0.749-2.643v-21.92h6.167v8.545h13.977v-8.545h6.167V35.771z
				M135.688,33.569h13.977v-5.888h-13.977V33.569z M162.35,13.852h6.212v25.546h-6.212V13.852z"/>
		</g>
	</g>
	<g>
		<g>
			<path fill="#FFFFFF" d="M60.714,65.414V53.612h2.168v5.188l3.873-5.188h2.633l-4.539,5.854l4.615,5.947H66.77l-3.888-5.142v5.142
				H60.714z"/>
		</g>
		<g>
			<path fill="#FFFFFF" d="M71.09,57.081c0.301-0.742,0.75-1.408,1.349-1.996c0.578-0.559,1.213-0.982,1.905-1.271
				c0.722-0.289,1.48-0.434,2.276-0.434c0.805,0,1.569,0.145,2.291,0.434c0.713,0.288,1.358,0.718,1.936,1.284
				c0.59,0.59,1.039,1.25,1.349,1.982c0.319,0.744,0.48,1.529,0.48,2.355c0,0.814-0.141,1.585-0.419,2.307
				c-0.268,0.713-0.655,1.348-1.161,1.904c-0.609,0.641-1.291,1.131-2.045,1.473c-0.765,0.341-1.578,0.51-2.447,0.51
				c-0.867,0-1.683-0.175-2.446-0.525c-0.765-0.352-1.439-0.852-2.028-1.502c-0.485-0.568-0.857-1.203-1.116-1.906
				c-0.258-0.722-0.387-1.476-0.387-2.26C70.626,58.61,70.781,57.825,71.09,57.081z M73.105,61.016
				c0.186,0.485,0.454,0.909,0.805,1.27c0.361,0.382,0.779,0.677,1.256,0.884c0.453,0.206,0.933,0.31,1.438,0.31
				c1.105,0,2.023-0.388,2.757-1.162c0.733-0.764,1.1-1.729,1.1-2.896c0-0.496-0.092-0.961-0.278-1.395
				c-0.176-0.443-0.438-0.852-0.79-1.224c-0.401-0.443-0.821-0.763-1.254-0.96c-0.443-0.195-0.955-0.295-1.534-0.295
				c-0.515,0-0.99,0.088-1.424,0.264c-0.444,0.187-0.836,0.46-1.177,0.82c-0.383,0.383-0.671,0.816-0.867,1.302
				s-0.295,0.991-0.295,1.519C72.841,60.009,72.929,60.53,73.105,61.016z"/>
		</g>
		<g>
			<path fill="#FFFFFF" d="M91.519,59.312c-0.475,0.62-1.131,1.069-1.967,1.348l3.516,4.755h-2.711l-3.252-4.538h-0.124v4.538h-2.138
				V53.612h2.881c0.691,0,1.203,0.021,1.533,0.063c0.506,0.072,0.935,0.217,1.286,0.434c0.506,0.279,0.908,0.702,1.208,1.27
				c0.31,0.548,0.464,1.142,0.464,1.781C92.215,57.985,91.984,58.702,91.519,59.312z M89.552,55.998
				c-0.32-0.237-0.853-0.356-1.595-0.356h-0.977v3.206h0.929c0.765,0,1.307-0.118,1.628-0.356c0.339-0.237,0.51-0.646,0.51-1.224
				C90.047,56.669,89.882,56.245,89.552,55.998z"/>
		</g>
		<g>
			<path fill="#FFFFFF" d="M94.523,65.414V53.612h6.428v2.029h-4.259v2.834h4.259v2.014h-4.259v2.834h4.259v2.091H94.523z"/>
		</g>
		<g>
			<path fill="#FFFFFF" d="M104.171,65.414h-2.308l4.615-11.802h1.952l4.615,11.802h-2.369l-1.239-3.269h-3.996L104.171,65.414z
				M107.455,56.741l-1.223,3.283h2.431L107.455,56.741z"/>
		</g>
		<g>
			<path fill="#FFFFFF" d="M119.844,65.414V53.612h2.866l3.096,8.225l3.066-8.225h2.851v11.802h-2.061v-8.317l-3.098,8.317h-1.532
				l-3.083-8.271v8.271H119.844z"/>
		</g>
		<g>
			<path fill="#FFFFFF" d="M134.372,57.081c0.301-0.742,0.749-1.408,1.349-1.996c0.578-0.559,1.212-0.982,1.904-1.271
				c0.723-0.289,1.481-0.434,2.277-0.434c0.805,0,1.568,0.145,2.291,0.434c0.713,0.288,1.358,0.718,1.936,1.284
				c0.59,0.59,1.039,1.25,1.349,1.982c0.319,0.744,0.48,1.529,0.48,2.355c0,0.814-0.141,1.585-0.42,2.307
				c-0.268,0.713-0.654,1.348-1.16,1.904c-0.61,0.641-1.292,1.131-2.045,1.473c-0.765,0.341-1.579,0.51-2.447,0.51
				c-0.867,0-1.683-0.175-2.447-0.525c-0.764-0.352-1.439-0.852-2.027-1.502c-0.485-0.568-0.857-1.203-1.116-1.906
				c-0.258-0.722-0.387-1.476-0.387-2.26C133.908,58.61,134.062,57.825,134.372,57.081z M136.386,61.016
				c0.185,0.485,0.454,0.909,0.805,1.27c0.361,0.382,0.779,0.677,1.255,0.884c0.453,0.206,0.934,0.31,1.439,0.31
				c1.105,0,2.023-0.388,2.757-1.162c0.733-0.764,1.1-1.729,1.1-2.896c0-0.496-0.092-0.961-0.278-1.395
				c-0.177-0.443-0.438-0.852-0.79-1.224c-0.402-0.443-0.821-0.763-1.254-0.96c-0.444-0.195-0.955-0.295-1.534-0.295
				c-0.516,0-0.99,0.088-1.425,0.264c-0.443,0.187-0.836,0.46-1.177,0.82c-0.383,0.383-0.671,0.816-0.867,1.302
				c-0.195,0.485-0.295,0.991-0.295,1.519C136.122,60.009,136.21,60.53,136.386,61.016z"/>
		</g>
		<g>
			<path fill="#FFFFFF" d="M153.825,54.479c0.682,0.59,1.021,1.42,1.021,2.494c0,0.382-0.077,0.743-0.231,1.084
				c-0.156,0.341-0.383,0.65-0.682,0.93c0.475,0.268,0.841,0.645,1.1,1.131c0.268,0.475,0.401,1.006,0.401,1.594
				c0,0.548-0.113,1.08-0.34,1.596c-0.218,0.496-0.506,0.904-0.868,1.224c-0.423,0.351-0.907,0.595-1.455,0.728
				c-0.424,0.104-0.986,0.155-1.688,0.155h-2.958V53.612h2.788C152.162,53.612,153.132,53.902,153.825,54.479z M151.361,63.37
				c0.702,0,1.203-0.114,1.503-0.341c0.299-0.228,0.449-0.604,0.449-1.131c0-0.578-0.161-1.007-0.48-1.286
				c-0.32-0.278-0.81-0.418-1.472-0.418h-1.114v3.176H151.361z M150.525,58.321c0.806,0,1.364-0.094,1.674-0.279
				c0.319-0.196,0.479-0.557,0.479-1.084c0-0.485-0.128-0.82-0.387-1.007c-0.259-0.186-0.696-0.278-1.316-0.278h-0.713v2.648H150.525
				z"/>
		</g>
		<g>
			<path fill="#FFFFFF" d="M157.555,65.414V53.612h2.168v11.802H157.555z"/>
		</g>
		<g>
			<path fill="#FFFFFF" d="M162.233,65.414V53.612h2.168v9.711h3.687v2.091H162.233z"/>
		</g>
		<g>
			<path fill="#FFFFFF" d="M170.023,65.414V53.612h2.168v11.802H170.023z"/>
		</g>
		<g>
			<path fill="#FFFFFF" d="M176.311,65.414v-9.757h-2.291v-2.045h6.753v2.045h-2.309v9.757H176.311z"/>
		</g>
		<g>
			<path fill="#FFFFFF" d="M187.416,65.414h-2.168v-4.353l-3.624-7.449h2.431l2.308,5.049l2.276-5.049h2.416l-3.639,7.543V65.414z"/>
		</g>
	</g>
	<g>
		<path fill="#FFFFFF" d="M187.363,23c0-1.382-1.13-2.512-2.511-2.512s-2.512,1.13-2.512,2.512c0,1.381,1.131,2.511,2.512,2.511
			S187.363,24.381,187.363,23z M198.163,41.209l-0.5-2.512l-6.153,1.256L189.5,29.78l2.259,0.879v4.271h2.513v-5.903l-6.53-2.763
			c-0.378,0-0.627-0.126-1.005-0.126c-0.878,0-1.631,0.502-2.135,1.256l-1.256,2.01c-1.005,1.758-3.014,3.014-5.4,3.014v2.513
			c2.765,0,5.275-1.257,6.907-3.141l0.753,3.768l-2.638,2.512v9.418h2.512v-7.534l2.637-2.512l1.257,5.524L198.163,41.209z"/>
	</g>
	<g>
		<path fill="#FFFFFF" d="M20.415,43.899c1.448,0,2.634-1.186,2.634-2.635s-1.186-2.635-2.634-2.635s-2.634,1.186-2.634,2.635
			S18.966,43.899,20.415,43.899z M6.585,52.46C2.896,52.46,0,55.357,0,59.046c0,3.687,2.896,6.584,6.585,6.584
			c3.687,0,6.585-2.897,6.585-6.584C13.17,55.357,10.271,52.46,6.585,52.46z M6.585,63.655c-2.503,0-4.609-2.107-4.609-4.609
			c0-2.504,2.106-4.611,4.609-4.611c2.503,0,4.61,2.107,4.61,4.611C11.195,61.548,9.088,63.655,6.585,63.655z M14.223,50.483
			l3.162-3.16l1.055,1.054c1.71,1.712,3.951,2.766,6.716,2.766v-2.634c-1.976,0-3.555-0.791-4.741-1.977l-2.503-2.502
			c-0.658-0.526-1.316-0.791-2.106-0.791c-0.79,0-1.449,0.265-1.845,0.791l-3.688,3.688c-0.525,0.527-0.79,1.186-0.79,1.844
			c0,0.791,0.265,1.449,0.79,1.845l4.216,3.688v6.584h2.634v-8.166L14.223,50.483z M25.024,52.46c-3.689,0-6.585,2.897-6.585,6.586
			c0,3.687,2.896,6.584,6.585,6.584c3.685,0,6.584-2.897,6.584-6.584C31.609,55.357,28.709,52.46,25.024,52.46z M25.024,63.655
			c-2.503,0-4.61-2.107-4.61-4.609c0-2.504,2.107-4.611,4.61-4.611c2.502,0,4.609,2.107,4.609,4.611
			C29.633,61.548,27.527,63.655,25.024,63.655z"/>
	</g>
	<g>
		<path fill="#FFFFFF" d="M6.295,41.634c-0.241,0-0.453-0.175-0.493-0.42c-0.227-1.395-0.341-2.746-0.341-4.018
			c0-0.276,0.224-0.521,0.5-0.521s0.5,0.201,0.5,0.478v0.044c0,1.218,0.11,2.516,0.329,3.857c0.044,0.272-0.141,0.529-0.414,0.573
			C6.349,41.632,6.321,41.634,6.295,41.634L6.295,41.634z M6.197,34.673c-0.027,0-0.054-0.002-0.081-0.007
			c-0.272-0.044-0.458-0.302-0.413-0.574c0.229-1.399,0.625-2.724,1.176-3.938c0.113-0.251,0.409-0.365,0.662-0.249
			c0.251,0.114,0.363,0.41,0.249,0.662c-0.514,1.134-0.884,2.375-1.099,3.687C6.65,34.499,6.438,34.673,6.197,34.673L6.197,34.673z
			M8.855,28.289c-0.104,0-0.209-0.033-0.299-0.1c-0.221-0.166-0.266-0.479-0.1-0.7c0.805-1.074,1.78-2.058,2.899-2.925
			c0.219-0.169,0.533-0.129,0.702,0.089s0.129,0.532-0.089,0.702c-1.048,0.812-1.961,1.731-2.712,2.733
			C9.158,28.219,9.008,28.289,8.855,28.289L8.855,28.289z M14.182,23.835c-0.178,0-0.351-0.096-0.441-0.264
			c-0.131-0.244-0.039-0.546,0.204-0.677c1.15-0.617,2.418-1.152,3.766-1.591c0.265-0.085,0.545,0.058,0.63,0.321
			s-0.059,0.545-0.321,0.63c-1.292,0.42-2.505,0.932-3.603,1.521C14.342,23.816,14.261,23.835,14.182,23.835L14.182,23.835z
			M20.771,21.512c-0.232,0-0.44-0.162-0.489-0.398c-0.056-0.271,0.118-0.535,0.388-0.591c2.344-0.486,4.001-0.532,4.071-0.534
			c0.312,0.009,0.505,0.211,0.512,0.487c0.007,0.276-0.211,0.505-0.487,0.513c-0.016,0-1.644,0.047-3.893,0.514
			C20.838,21.508,20.804,21.512,20.771,21.512L20.771,21.512z"/>
	</g>
	<g>
		<path fill="#FFFFFF" d="M195.419,60.014c-0.183,0-0.358-0.101-0.446-0.275c-0.124-0.247-0.025-0.547,0.222-0.671
			c1.11-0.559,2.145-1.148,3.075-1.754c0.23-0.149,0.541-0.086,0.691,0.146c0.15,0.231,0.085,0.541-0.146,0.691
			c-0.961,0.626-2.028,1.234-3.171,1.809C195.572,59.997,195.496,60.014,195.419,60.014L195.419,60.014z M200.952,56.45
			c-0.142,0-0.282-0.061-0.382-0.177c-0.178-0.211-0.152-0.526,0.059-0.705c1.05-0.889,1.945-1.834,2.662-2.811
			c0.165-0.224,0.479-0.271,0.699-0.107c0.223,0.164,0.271,0.477,0.107,0.699c-0.764,1.04-1.713,2.043-2.822,2.982
			C201.181,56.411,201.066,56.45,200.952,56.45L200.952,56.45z M205.181,50.958c-0.065,0-0.131-0.013-0.194-0.039
			c-0.254-0.107-0.374-0.4-0.267-0.655c0.498-1.181,0.783-2.429,0.848-3.709c0.013-0.274,0.216-0.508,0.524-0.474
			c0.275,0.014,0.488,0.248,0.474,0.524c-0.069,1.396-0.381,2.758-0.924,4.047C205.561,50.844,205.376,50.958,205.181,50.958
			L205.181,50.958z M205.854,44.096c-0.235,0-0.445-0.168-0.49-0.408c-0.225-1.202-0.625-2.441-1.19-3.684
			c-0.114-0.251-0.003-0.548,0.248-0.662c0.252-0.112,0.547-0.004,0.662,0.248c0.599,1.315,1.024,2.633,1.263,3.914
			c0.051,0.271-0.128,0.532-0.399,0.583C205.916,44.093,205.885,44.096,205.854,44.096L205.854,44.096z M203.191,37.663
			c-0.165,0-0.326-0.082-0.422-0.231c-1.205-1.894-2.361-3.083-2.373-3.095c-0.192-0.197-0.189-0.514,0.008-0.707
			c0.197-0.194,0.514-0.189,0.707,0.007c0.05,0.051,1.236,1.269,2.502,3.257c0.148,0.233,0.079,0.542-0.153,0.69
			C203.376,37.638,203.284,37.663,203.191,37.663L203.191,37.663z"/>
	</g>
</svg>
