<?xml version="1.0" encoding="utf-8"?>
<!-- Generator: Adobe Illustrator 26.2.1, SVG Export Plug-In . SVG Version: 6.00 Build 0)  -->
<svg version="1.1" id="Layer_1" xmlns="http://www.w3.org/2000/svg" xmlns:xlink="http://www.w3.org/1999/xlink" x="0px" y="0px"
	 viewBox="0 0 191 63.9" style="enable-background:new 0 0 191 63.9;" xml:space="preserve">
<style type="text/css">
	.st0{fill:#FFFFFF;}
</style>
<g id="Layer_2_00000070100833493812113310000000431972682032210860_">
	<g id="Layer_1-2">
		<g>
			<path class="st0" d="M34.5,43.4V31.8h-8.4v-4.7h22.7v4.7h-8.2v11.6H34.5z M48.8,8.8v4.7H32.2v4.4h16.6v4.7H28.5
				c-0.7,0.1-1.3-0.2-1.8-0.7c-0.5-0.7-0.7-1.5-0.6-2.3V8.8H48.8z"/>
		</g>
		<g>
			<path class="st0" d="M73,5.2H56.5V0h22.8v14.2H62.8v3.4h16.4v5H58.9c-0.7,0.1-1.4-0.2-1.8-0.8c-0.5-1-0.7-2-0.6-3.1V8.6H73V5.2z
				 M65,43.4V31.8h-8.5v-4.7h22.7v4.7H71v11.6H65z"/>
		</g>
		<g>
			<path class="st0" d="M94,8.8v9.4h16.3v4.7H90.3c-0.7,0.1-1.3-0.1-1.8-0.6c-0.5-0.7-0.7-1.5-0.6-2.2V8.8H94z M96.2,43.5V31.9h-8.4
				v-4.7h22.7v4.7h-8.2v11.6L96.2,43.5z"/>
		</g>
		<g>
			<path class="st0" d="M140.9,28.6c0.1,0.8-0.1,1.7-0.6,2.4c-0.6,0.5-1.3,0.7-2,0.6h-17.7c-0.7,0.1-1.4-0.2-1.9-0.6
				c-0.5-0.7-0.7-1.5-0.7-2.4V8.8h6.4v8.7h10.1V8.8h6.4V28.6z M124.4,26.6h10.1v-4.3h-10.1V26.6z M146.5,8.8h5.4v23.1h-5.4V8.8z"/>
		</g>
		<g>
			<path class="st0" d="M164.1,43.9c-0.3,0-0.5-0.2-0.5-0.5c0-0.3-0.4-6.6,4.4-9.7c-0.5-1.9-0.8-6.6-0.9-9.2c-0.7,2.4-1.8,4-3.4,4.8
				c-2.7,1.4-5.6,0-5.8-0.1c-0.2-0.1-0.4-0.4-0.2-0.7c0.1-0.2,0.4-0.4,0.7-0.2c0,0,2.6,1.2,4.9,0.1c1.6-0.8,2.7-2.7,3.2-5.6
				c0-0.1,0.1-0.3,0.2-0.3c0.1-0.1,2.9-1.7,5.6-0.5c2.1,1,3.4,3.5,4,7.3c0,0.3-0.2,0.5-0.4,0.6c-0.3,0-0.5-0.1-0.6-0.4
				c-0.5-3.5-1.7-5.7-3.4-6.6c-0.2-0.1-0.4-0.2-0.6-0.2c0.1,0.4,0.2,0.8,0.3,1.1c1.2,4,2.4,7.8-2.6,10.3c-5,2.6-4.5,9-4.5,9.1
				C164.6,43.7,164.4,43.9,164.1,43.9C164.1,43.9,164.1,43.9,164.1,43.9z M168.1,23.3c0.1,2.5,0.3,7.9,0.8,10c4-2.2,3.1-5.1,1.9-9
				c-0.1-0.5-0.3-1-0.4-1.5L168.1,23.3z M174.9,42.8c-0.1,0-0.3-0.1-0.4-0.2c-2-2.1-3.7-4.4-4.9-7.1c-0.1-0.2,0-0.5,0.2-0.7
				c0.3-0.1,0.5,0,0.7,0.2c1.2,2.5,2.8,4.8,4.7,6.8c0.2,0.2,0.2,0.5,0,0.7C175.1,42.8,175,42.8,174.9,42.8z M169,20.5
				C168.9,20.5,168.9,20.5,169,20.5c-1.7,0-3-1.4-3-3c0-1.6,1.4-3,3-3c0,0,0,0,0,0c1.7,0,3,1.4,3,3C171.9,19.2,170.6,20.5,169,20.5z
				 M169,15.5c-0.5,0-1,0.2-1.4,0.6c-0.4,0.4-0.6,0.9-0.6,1.4c0,1.1,0.9,2,2,2c0,0,0,0,0,0c1.1,0,2-0.9,2-2l0,0
				C171,16.4,170.1,15.5,169,15.5C169,15.5,169,15.5,169,15.5z"/>
		</g>
		<g>
			<path class="st0" d="M6.3,43.9c-0.3,0-0.5-0.2-0.5-0.4l0-0.1c0-0.4,0-1.9,0.3-4c0-0.3,0.3-0.5,0.6-0.4c0.3,0,0.5,0.3,0.4,0.6
				c-0.3,2-0.3,3.4-0.3,3.8C6.8,43.6,6.6,43.9,6.3,43.9C6.3,43.9,6.3,43.9,6.3,43.9z M7.2,37c0,0-0.1,0-0.1,0
				c-0.3-0.1-0.4-0.3-0.4-0.6c0.4-1.4,0.8-2.7,1.4-3.8c0.1-0.3,0.4-0.4,0.7-0.2C9,32.4,9.1,32.7,9,32.9c-0.5,1.1-1,2.4-1.3,3.7
				C7.7,36.8,7.5,37,7.2,37z M10,30.6c-0.1,0-0.2,0-0.3-0.1c-0.2-0.2-0.3-0.5-0.1-0.7c0.8-1.2,1.7-2.2,2.6-3.2
				c0.2-0.2,0.5-0.2,0.7,0c0.2,0.2,0.2,0.5,0,0.7c-0.9,0.9-1.7,1.9-2.5,3C10.3,30.5,10.2,30.6,10,30.6z M14.9,25.7
				c-0.2,0-0.3-0.1-0.4-0.2c-0.1-0.2-0.1-0.5,0.2-0.7c1.1-0.7,2.4-1.3,3.7-1.7c0.3-0.1,0.5,0.1,0.6,0.3c0.1,0.3-0.1,0.5-0.3,0.6
				c-1.3,0.4-2.4,0.9-3.5,1.6C15.1,25.7,15,25.7,14.9,25.7z"/>
		</g>
		<g>
			<path class="st0" d="M186.1,54c-0.1,0-0.2,0-0.3-0.1c-0.2-0.2-0.3-0.5-0.1-0.7c0.8-1.1,1.5-2.2,2.1-3.3c0.1-0.2,0.4-0.3,0.7-0.2
				c0.2,0.1,0.3,0.4,0.2,0.7c-0.6,1.1-1.3,2.3-2.2,3.4C186.4,54,186.2,54,186.1,54z M189.4,47.9c-0.1,0-0.1,0-0.2,0
				c-0.3-0.1-0.4-0.4-0.3-0.6c0.5-1.3,0.8-2.5,0.9-3.8c0-0.3,0.3-0.5,0.6-0.4c0.3,0,0.5,0.3,0.4,0.6c-0.2,1.3-0.5,2.7-1,4
				C189.8,47.8,189.6,47.9,189.4,47.9z M190.5,41.1c-0.3,0-0.5-0.2-0.5-0.5c-0.1-1.3-0.3-2.5-0.8-3.8c-0.1-0.3,0.1-0.5,0.3-0.6
				c0.3-0.1,0.5,0.1,0.6,0.3c0.4,1.3,0.7,2.7,0.8,4C191,40.8,190.8,41,190.5,41.1C190.5,41.1,190.5,41.1,190.5,41.1z M188.5,34.4
				c-0.2,0-0.3-0.1-0.4-0.3c-0.6-1.1-1.3-2.2-2.2-3.2c-0.2-0.2-0.1-0.5,0.1-0.7c0.2-0.2,0.5-0.1,0.7,0.1c0.9,1.1,1.7,2.2,2.3,3.4
				c0.1,0.2,0,0.5-0.2,0.7C188.7,34.4,188.6,34.4,188.5,34.4z M184.2,28.9c-0.1,0-0.2,0-0.3-0.1c-1.7-1.6-3-2.5-3-2.5
				c-0.2-0.1-0.3-0.5-0.2-0.7c0.1-0.2,0.5-0.3,0.7-0.2c0.1,0,1.5,0.9,3.2,2.6c0.2,0.2,0.2,0.5,0,0.7
				C184.5,28.8,184.4,28.9,184.2,28.9z"/>
		</g>
		<g>
			<g>
				<path class="st0" d="M10.4,58.7c-1.6,0-3.3-1-4.4-1.6c-1.7-1-3.8-2.2-4.4-4.8C1.3,50.8,1.3,48,2.9,47l0,0c1.3-0.8,3.4-0.4,5.8,1
					c2.4,1.4,5.2,4.1,5.1,7.1c0,1.1-0.5,2.6-1.8,3.3C11.5,58.6,11,58.7,10.4,58.7z M3.4,47.8c-1.1,0.7-1.1,3-0.8,4.3
					c0.5,2.1,2.3,3.2,3.9,4.1c1.3,0.8,3.5,2.1,5,1.2c0.8-0.5,1.2-1.6,1.3-2.5c0.1-2.3-2.2-4.8-4.6-6.2C6.2,47.7,4.3,47.3,3.4,47.8
					L3.4,47.8z"/>
			</g>
			<g>
				<path class="st0" d="M17,62.9c-0.9,0-1.8-0.3-2.5-1c-0.7-0.7-1-1.6-1-2.6c0-0.9,0.4-1.7,1-2.3c0.7-0.6,1.6-0.9,2.6-0.7
					c1.1,0.2,2.1,0.8,2.6,1.7c0.8,1.3,0.5,3-0.5,4C18.6,62.6,17.8,62.9,17,62.9z M16.6,57.2c-0.5,0-1,0.2-1.4,0.5l0,0
					c-0.4,0.4-0.7,1-0.7,1.6c0,0.7,0.2,1.4,0.7,1.8c0.9,0.9,2.4,1,3.3,0.1c0.8-0.8,0.8-2,0.3-2.8c-0.4-0.6-1.1-1.1-1.9-1.2
					C16.9,57.3,16.8,57.2,16.6,57.2z"/>
			</g>
			<g>
				<path class="st0" d="M23.2,56.2c-2.1,0-4-2-5-3.1c-1.4-1.5-3.2-3.4-2.8-5.9c0.2-1.3,1.1-3.3,2.8-3.7l0,0l0,0l0,0
					c2-0.5,4.4,1.5,6,3.5c1.6,2,3.2,5.2,2.1,7.3c-0.5,1.1-1.7,1.7-2.5,1.8C23.6,56.2,23.4,56.2,23.2,56.2z M18.8,44.5
					c-0.1,0-0.3,0-0.4,0l0,0c-1.1,0.3-1.9,1.8-2,2.9c-0.3,2,1.2,3.6,2.5,5.1c1.1,1.2,2.9,3.1,4.8,2.7c0.6-0.1,1.5-0.6,1.8-1.3
					c0.7-1.3-0.2-3.9-2-6.2C21.9,45.7,20.1,44.5,18.8,44.5z"/>
			</g>
			<g>
				<path class="st0" d="M27.5,63c-0.5,0-1.1-0.1-1.6-0.4c-1.1-0.5-1.8-1.4-2-2.5c-0.3-1.6,0.7-3.2,2.2-3.8l0,0
					c1.3-0.5,2.8-0.1,3.6,0.9c0.7,0.8,1,1.9,0.8,3c-0.2,1.1-0.8,1.9-1.6,2.4C28.5,62.8,28,63,27.5,63z M27.3,57.1
					c-0.3,0-0.5,0-0.8,0.1l0,0c-1.1,0.4-1.8,1.6-1.6,2.7c0.1,0.7,0.7,1.4,1.4,1.7c0.7,0.4,1.5,0.4,2.1,0c0.6-0.3,1-0.9,1.1-1.7
					c0.1-0.8-0.1-1.6-0.5-2.2C28.6,57.4,27.9,57.1,27.3,57.1z"/>
			</g>
		</g>
		<g>
			<g>
				<path class="st0" d="M51.5,50.6h3.6c0.9,0,1.7,0.1,2.5,0.4c0.7,0.3,1.4,0.6,1.9,1.1c0.5,0.5,0.9,1.1,1.2,1.8
					c0.3,0.7,0.4,1.5,0.4,2.3c0,0.9-0.1,1.7-0.3,2.4c-0.2,0.7-0.6,1.3-1.1,1.9c-0.5,0.5-1.2,1-1.9,1.3c-0.8,0.3-1.7,0.4-2.8,0.4
					h-3.4L51.5,50.6z M55.1,60.3c1.3,0,2.3-0.4,3-1.1c0.6-0.7,1-1.7,1-3c0-0.6-0.1-1.1-0.3-1.6s-0.4-0.9-0.7-1.2
					c-0.3-0.3-0.7-0.6-1.2-0.8c-0.5-0.2-1-0.3-1.6-0.3h-1.6v8H55.1z"/>
			</g>
			<g>
				<path class="st0" d="M77.4,50.6v5.7c0,1,0,1.8-0.1,2.6c-0.1,0.7-0.3,1.4-0.6,1.9c-0.3,0.5-0.8,0.9-1.5,1.2
					c-0.7,0.3-1.5,0.4-2.6,0.5c-1.1,0-1.9-0.1-2.5-0.4s-1.1-0.7-1.4-1.2c-0.3-0.5-0.6-1.1-0.7-1.9c-0.1-0.7-0.2-1.6-0.2-2.6v-5.8
					h2.1l0,5.9c0,0.5,0.1,1.1,0.1,1.6c0,0.5,0.2,0.9,0.3,1.3c0.2,0.4,0.5,0.7,0.8,0.9c0.4,0.2,0.9,0.4,1.5,0.4
					c0.7,0,1.2-0.1,1.5-0.4c0.4-0.3,0.7-0.6,0.8-1c0.2-0.4,0.3-0.9,0.3-1.4s0.1-1,0.1-1.5l0-5.9H77.4z"/>
			</g>
			<g>
				<path class="st0" d="M87.7,50.6c0.5,0,1,0.1,1.5,0.2s0.9,0.3,1.3,0.6c0.4,0.3,0.7,0.6,0.9,1c0.2,0.4,0.3,0.9,0.3,1.5
					c0,0.3-0.1,0.7-0.2,1c-0.1,0.3-0.3,0.6-0.5,0.8c-0.2,0.2-0.4,0.4-0.7,0.6c-0.3,0.1-0.5,0.2-0.8,0.3c0.4,0.2,0.7,0.5,0.9,1
					c0.3,0.4,0.5,0.9,0.7,1.5c0.2,0.6,0.4,1.1,0.7,1.7c0.2,0.6,0.5,1.1,0.7,1.5h-2.5c-0.2-0.6-0.4-1.2-0.6-1.8s-0.4-1.2-0.7-1.8
					c-0.2-0.4-0.4-0.6-0.6-0.8c-0.2-0.2-0.5-0.3-0.7-0.4c-0.3-0.1-0.5-0.1-0.8-0.1c-0.3,0-0.6,0-1,0v4.8h-2l0-11.6H87.7z M87.5,55.5
					c0.3,0,0.5,0,0.8-0.1c0.3-0.1,0.5-0.2,0.7-0.3c0.2-0.1,0.4-0.3,0.5-0.5c0.1-0.2,0.2-0.5,0.2-0.7s-0.1-0.5-0.2-0.7
					c-0.1-0.2-0.3-0.3-0.5-0.5c-0.2-0.1-0.4-0.2-0.7-0.3c-0.3-0.1-0.5-0.1-0.7-0.1h-1.8v3.2H87.5z"/>
			</g>
			<g>
				<path class="st0" d="M108.7,50.6v5.7c0,1,0,1.8-0.1,2.6c-0.1,0.7-0.3,1.4-0.6,1.9c-0.3,0.5-0.8,0.9-1.5,1.2
					c-0.7,0.3-1.5,0.4-2.6,0.5c-1.1,0-1.9-0.1-2.5-0.4c-0.6-0.3-1.1-0.7-1.4-1.2c-0.3-0.5-0.6-1.1-0.7-1.9C99,58.2,99,57.3,99,56.3
					v-5.8h2.1l0,5.9c0,0.5,0.1,1.1,0.1,1.6c0,0.5,0.2,0.9,0.3,1.3s0.5,0.7,0.8,0.9c0.4,0.2,0.9,0.4,1.5,0.4c0.7,0,1.2-0.1,1.5-0.4
					s0.7-0.6,0.8-1c0.2-0.4,0.3-0.9,0.3-1.4c0-0.5,0.1-1,0.1-1.5l0-5.9H108.7z"/>
			</g>
			<g>
				<path class="st0" d="M115.4,50.6h2.1l5.2,8.4v-8.4h1.9v11.6h-2.2l-5.1-8.2v8.2h-1.9V50.6z"/>
			</g>
			<g>
				<path class="st0" d="M141,50.6v5.7c0,1,0,1.8-0.1,2.6c-0.1,0.7-0.3,1.4-0.6,1.9c-0.3,0.5-0.8,0.9-1.5,1.2
					c-0.7,0.3-1.5,0.4-2.6,0.5c-1.1,0-1.9-0.1-2.5-0.4c-0.6-0.3-1.1-0.7-1.4-1.2c-0.3-0.5-0.6-1.1-0.7-1.9c-0.1-0.7-0.2-1.6-0.2-2.6
					v-5.8h2.1l0,5.9c0,0.5,0.1,1.1,0.1,1.6c0,0.5,0.2,0.9,0.3,1.3s0.5,0.7,0.8,0.9c0.4,0.2,0.9,0.4,1.5,0.4c0.7,0,1.2-0.1,1.5-0.4
					s0.7-0.6,0.8-1c0.2-0.4,0.3-0.9,0.3-1.4c0-0.5,0.1-1,0.1-1.5l0-5.9H141z"/>
			</g>
			<g>
				<path class="st0" d="M151.2,50.6c0.3,0,0.6,0,1,0c0.3,0,0.6,0.1,1,0.2c0.3,0.1,0.6,0.2,0.9,0.3c0.3,0.1,0.5,0.3,0.8,0.6
					c0.4,0.4,0.6,0.9,0.7,1.4s0,1-0.1,1.5c-0.1,0.4-0.3,0.7-0.6,1c-0.3,0.2-0.6,0.4-0.9,0.5c0.7,0.3,1.2,0.6,1.6,1.1s0.5,1,0.5,1.8
					c0,0.6-0.1,1.2-0.4,1.6c-0.3,0.4-0.6,0.7-1,1c-0.4,0.2-0.9,0.4-1.4,0.5s-1,0.2-1.5,0.2h-4.1V50.6H151.2z M151.1,55.3
					c0.3,0,0.6,0,0.9-0.1c0.3,0,0.5-0.1,0.8-0.2c0.2-0.1,0.4-0.3,0.5-0.4c0.1-0.2,0.2-0.4,0.2-0.8c0-0.3-0.1-0.5-0.2-0.7
					c-0.1-0.2-0.3-0.3-0.4-0.5c-0.2-0.1-0.4-0.2-0.6-0.2c-0.2,0-0.5-0.1-0.7-0.1h-1.8v3H151.1z M151.7,60.4c0.3,0,0.6,0,0.8-0.1
					c0.3-0.1,0.5-0.2,0.7-0.3c0.2-0.1,0.4-0.3,0.5-0.5c0.1-0.2,0.2-0.5,0.2-0.8c0-0.7-0.2-1.2-0.7-1.4c-0.5-0.2-1.2-0.4-2.1-0.4
					h-1.3v3.4H151.7z"/>
			</g>
			<g>
				<path class="st0" d="M164.6,50.6v11.6h-1.9V50.6H164.6z"/>
			</g>
		</g>
	</g>
</g>
</svg>
