<?xml version="1.0" encoding="utf-8"?>
<!-- Generator: Adobe Illustrator 14.0.0, SVG Export Plug-In . SVG Version: 6.00 Build 43363)  -->
<!DOCTYPE svg PUBLIC "-//W3C//DTD SVG 1.1//EN" "http://www.w3.org/Graphics/SVG/1.1/DTD/svg11.dtd">
<svg version="1.1" id="Layer_1" xmlns="http://www.w3.org/2000/svg" xmlns:xlink="http://www.w3.org/1999/xlink" x="0px" y="0px"
	 width="206.082px" height="65.121px" viewBox="0 0 206.082 65.121" enable-background="new 0 0 206.082 65.121"
	 xml:space="preserve">
<g>
	<g>
		<g>
			<path fill="#3DB349" d="M43.368,47.09v-7.705H31.91v-5.453H59.55v5.453H49.531v7.705H43.368z M59.55,13.779v5.453H38.118v5.147
				H59.55v5.453H34.883c-0.992,0-1.735-0.263-2.229-0.784c-0.496-0.553-0.744-1.44-0.744-2.662V13.779H59.55z"/>
		</g>
	</g>
	<g>
		<g>
			<path fill="#3DB349" d="M76.235,47.09V27.369H64.777v-5.452h27.64v5.452H82.398v19.723L76.235,47.09L76.235,47.09z M86.01,5.295
				H64.777V0.06h27.64v11.952H71.247v2.051h21.169v5.017h-24.71c-0.992,0-1.72-0.218-2.186-0.654
				c-0.497-0.523-0.744-1.397-0.744-2.618V7.302H86.01L86.01,5.295L86.01,5.295z"/>
		</g>
	</g>
	<g>
		<g>
			<path fill="#8AA8D0" d="M109.099,47.09v-8.578H97.64V33.06h27.641v5.452h-10.019v8.578H109.099z M103.893,13.779v8.638h21.388
				v5.452h-24.667c-1.02,0-1.762-0.218-2.229-0.653c-0.497-0.524-0.744-1.396-0.744-2.618V13.779H103.893z"/>
		</g>
	</g>
	<g>
		<g>
			<path fill="#1652A1" d="M155.19,35.488c0,1.251-0.232,2.107-0.698,2.574c-0.408,0.436-1.18,0.669-2.317,0.698H132.01
				c-0.991,0-1.72-0.22-2.186-0.656c-0.496-0.521-0.744-1.395-0.744-2.616v-21.71h6.121v8.463h13.87v-8.463h6.12L155.19,35.488
				L155.19,35.488z M135.2,33.306h13.87v-5.83H135.2V33.306z M161.659,13.779h6.165V39.08h-6.165V13.779z"/>
		</g>
	</g>
	<g>
		<g>
			<path fill="#7A7B7E" d="M60.794,64.845V53.157h2.151v5.139l3.844-5.139h2.614l-4.504,5.799l4.579,5.89h-2.673l-3.859-5.093v5.093
				H60.794L60.794,64.845z"/>
		</g>
		<g>
			<path fill="#7A7B7E" d="M71.092,56.593c0.299-0.735,0.744-1.395,1.339-1.977c0.574-0.555,1.204-0.973,1.891-1.26
				c0.716-0.286,1.468-0.43,2.258-0.43c0.798,0,1.557,0.144,2.273,0.43c0.708,0.286,1.348,0.712,1.922,1.272
				c0.585,0.584,1.031,1.237,1.338,1.962c0.317,0.737,0.476,1.516,0.476,2.333c0,0.807-0.14,1.57-0.416,2.284
				c-0.266,0.707-0.649,1.335-1.151,1.886c-0.604,0.635-1.281,1.121-2.03,1.459c-0.759,0.338-1.565,0.505-2.428,0.505
				c-0.86,0-1.671-0.173-2.428-0.52c-0.759-0.349-1.428-0.844-2.013-1.487c-0.481-0.563-0.85-1.191-1.107-1.888
				c-0.257-0.715-0.385-1.462-0.385-2.238C70.631,58.107,70.785,57.331,71.092,56.593z M73.092,60.491
				c0.185,0.48,0.451,0.9,0.799,1.258c0.358,0.377,0.773,0.669,1.246,0.874c0.45,0.206,0.927,0.308,1.428,0.308
				c1.096,0,2.007-0.385,2.736-1.15c0.728-0.757,1.091-1.713,1.091-2.869c0-0.491-0.091-0.951-0.275-1.381
				c-0.175-0.439-0.435-0.844-0.784-1.213c-0.398-0.438-0.815-0.755-1.245-0.95c-0.44-0.192-0.948-0.292-1.522-0.292
				c-0.512,0-0.983,0.088-1.413,0.261c-0.441,0.187-0.83,0.456-1.168,0.813c-0.38,0.379-0.666,0.809-0.86,1.289
				c-0.195,0.48-0.293,0.981-0.293,1.504C72.829,59.494,72.917,60.01,73.092,60.491z"/>
		</g>
		<g>
			<path fill="#7A7B7E" d="M91.366,58.802c-0.472,0.614-1.122,1.059-1.953,1.335l3.49,4.71h-2.69l-3.227-4.495h-0.123v4.495H84.74
				v-11.69h2.86c0.686,0,1.193,0.021,1.521,0.063c0.503,0.071,0.929,0.214,1.276,0.43c0.502,0.275,0.901,0.694,1.199,1.257
				c0.308,0.543,0.46,1.132,0.46,1.765C92.056,57.488,91.827,58.199,91.366,58.802z M89.414,55.52
				c-0.318-0.234-0.847-0.352-1.583-0.352h-0.969v3.175h0.921c0.759,0,1.297-0.117,1.616-0.354c0.336-0.234,0.506-0.64,0.506-1.212
				C89.905,56.185,89.741,55.765,89.414,55.52z"/>
		</g>
		<g>
			<path fill="#7A7B7E" d="M94.347,64.845V53.157h6.379v2.011H96.5v2.807h4.227v1.995H96.5v2.807h4.227v2.069H94.347z"/>
		</g>
		<g>
			<path fill="#7A7B7E" d="M103.921,64.845h-2.289l4.579-11.688h1.938l4.579,11.688h-2.351l-1.229-3.237h-3.965L103.921,64.845z
				 M107.18,56.256l-1.214,3.252h2.413L107.18,56.256z"/>
		</g>
		<g>
			<path fill="#7A7B7E" d="M119.476,64.845V53.157h2.843l3.073,8.146l3.042-8.146h2.83v11.688h-2.046v-8.236l-3.074,8.236h-1.521
				l-3.06-8.19v8.19H119.476z"/>
		</g>
		<g>
			<path fill="#7A7B7E" d="M133.893,56.593c0.298-0.735,0.743-1.395,1.339-1.977c0.573-0.555,1.203-0.973,1.89-1.26
				c0.718-0.286,1.47-0.43,2.26-0.43c0.799,0,1.557,0.144,2.273,0.43c0.707,0.286,1.348,0.712,1.921,1.272
				c0.586,0.584,1.031,1.237,1.339,1.962c0.316,0.737,0.477,1.516,0.477,2.333c0,0.807-0.14,1.57-0.417,2.284
				c-0.266,0.707-0.649,1.335-1.151,1.886c-0.604,0.635-1.282,1.121-2.029,1.459c-0.759,0.338-1.567,0.505-2.428,0.505
				s-1.671-0.173-2.429-0.52c-0.759-0.349-1.429-0.844-2.012-1.487c-0.482-0.563-0.851-1.191-1.108-1.888
				c-0.256-0.715-0.384-1.462-0.384-2.238C133.432,58.107,133.586,57.331,133.893,56.593z M135.892,60.491
				c0.184,0.48,0.45,0.9,0.799,1.258c0.357,0.377,0.773,0.669,1.245,0.874c0.45,0.206,0.927,0.308,1.428,0.308
				c1.097,0,2.008-0.385,2.737-1.15c0.727-0.757,1.091-1.713,1.091-2.869c0-0.491-0.091-0.951-0.276-1.381
				c-0.175-0.439-0.434-0.844-0.784-1.213c-0.398-0.438-0.813-0.755-1.244-0.95c-0.44-0.192-0.948-0.292-1.521-0.292
				c-0.513,0-0.982,0.088-1.415,0.261c-0.439,0.187-0.829,0.456-1.168,0.813c-0.38,0.379-0.666,0.809-0.86,1.289
				c-0.193,0.48-0.293,0.981-0.293,1.504C135.63,59.494,135.718,60.01,135.892,60.491z"/>
		</g>
		<g>
			<path fill="#7A7B7E" d="M153.199,54.016c0.676,0.584,1.014,1.406,1.014,2.47c0,0.378-0.077,0.735-0.229,1.074
				c-0.155,0.337-0.381,0.643-0.677,0.921c0.471,0.266,0.834,0.639,1.091,1.12c0.266,0.47,0.398,0.996,0.398,1.578
				c0,0.542-0.112,1.07-0.337,1.581c-0.218,0.491-0.503,0.896-0.861,1.213c-0.42,0.347-0.9,0.588-1.444,0.72
				c-0.421,0.104-0.979,0.154-1.676,0.154h-2.936v-11.69h2.767C151.549,53.157,152.51,53.444,153.199,54.016z M150.754,62.823
				c0.696,0,1.193-0.115,1.491-0.34c0.297-0.226,0.446-0.597,0.446-1.119c0-0.572-0.16-0.997-0.478-1.274
				c-0.316-0.275-0.803-0.414-1.46-0.414h-1.106v3.147H150.754z M149.924,57.821c0.8,0,1.354-0.093,1.661-0.275
				c0.317-0.195,0.477-0.553,0.477-1.074c0-0.48-0.128-0.812-0.385-0.998c-0.257-0.184-0.69-0.274-1.306-0.274h-0.708v2.622H149.924
				z"/>
		</g>
		<g>
			<path fill="#7A7B7E" d="M156.901,64.845V53.157h2.151v11.688H156.901z"/>
		</g>
		<g>
			<path fill="#7A7B7E" d="M161.543,64.845V53.157h2.152v9.619h3.658v2.069H161.543z"/>
		</g>
		<g>
			<path fill="#7A7B7E" d="M169.274,64.845V53.157h2.151v11.688H169.274z"/>
		</g>
		<g>
			<path fill="#7A7B7E" d="M175.514,64.845v-9.662h-2.273v-2.026h6.701v2.026h-2.292v9.662H175.514z"/>
		</g>
		<g>
			<path fill="#7A7B7E" d="M186.535,64.845h-2.151v-4.312l-3.597-7.377h2.413l2.29,5.001l2.259-5.001h2.397l-3.611,7.472V64.845
				L186.535,64.845z"/>
		</g>
	</g>
	<g>
		<path fill="#C1C3C5" d="M186.482,22.839c0-1.368-1.121-2.488-2.491-2.488c-1.371,0-2.494,1.12-2.494,2.488
			c0,1.367,1.123,2.486,2.494,2.486C185.361,25.326,186.482,24.207,186.482,22.839z M197.2,40.873l-0.496-2.487l-6.106,1.243
			l-1.994-10.074l2.241,0.87v4.23h2.494v-5.847l-6.48-2.735c-0.375,0-0.622-0.125-0.997-0.125c-0.871,0-1.618,0.497-2.118,1.243
			l-1.247,1.991c-0.998,1.74-2.991,2.984-5.359,2.984v2.488c2.744,0,5.235-1.245,6.855-3.109l0.747,3.731l-2.618,2.487v9.327h2.493
			V39.63l2.616-2.488l1.248,5.472L197.2,40.873z"/>
	</g>
	<g>
		<path fill="#C1C3C5" d="M20.801,43.538c1.438,0,2.614-1.176,2.614-2.61s-1.176-2.609-2.614-2.609
			c-1.437,0-2.614,1.175-2.614,2.609S19.363,43.538,20.801,43.538z M7.076,52.016c-3.661,0-6.535,2.869-6.535,6.523
			c0,3.651,2.875,6.521,6.535,6.521c3.66,0,6.535-2.869,6.535-6.521C13.611,54.885,10.735,52.016,7.076,52.016z M7.076,63.104
			c-2.484,0-4.574-2.087-4.574-4.564c0-2.479,2.09-4.567,4.574-4.567s4.575,2.088,4.575,4.567
			C11.651,61.017,9.56,63.104,7.076,63.104z M14.656,50.058l3.137-3.129l1.048,1.043c1.697,1.696,3.921,2.74,6.665,2.74v-2.609
			c-1.96,0-3.527-0.783-4.705-1.958l-2.484-2.477c-0.653-0.522-1.306-0.784-2.089-0.784c-0.784,0-1.438,0.262-1.832,0.784
			l-3.659,3.651c-0.521,0.522-0.784,1.175-0.784,1.826c0,0.784,0.263,1.436,0.784,1.827l4.184,3.653v6.521h2.614v-8.088
			L14.656,50.058z M25.375,52.016c-3.661,0-6.535,2.869-6.535,6.523c0,3.651,2.874,6.521,6.535,6.521
			c3.657,0,6.534-2.869,6.534-6.521C31.91,54.885,29.032,52.016,25.375,52.016z M25.375,63.104c-2.484,0-4.575-2.087-4.575-4.564
			c0-2.479,2.091-4.567,4.575-4.567c2.483,0,4.574,2.088,4.574,4.567C29.949,61.017,27.86,63.104,25.375,63.104z"/>
	</g>
	<g>
		<path fill="#9B9B9A" d="M6.788,41.294c-0.238,0-0.45-0.174-0.489-0.416c-0.225-1.382-0.338-2.72-0.338-3.979
			c0-0.274,0.223-0.516,0.497-0.516c0.274,0,0.496,0.198,0.496,0.473V36.9c0,1.206,0.109,2.49,0.327,3.82
			c0.043,0.269-0.14,0.524-0.411,0.566C6.843,41.292,6.814,41.294,6.788,41.294L6.788,41.294z M6.691,34.4
			c-0.027,0-0.053-0.002-0.081-0.007c-0.27-0.043-0.455-0.298-0.41-0.569c0.228-1.385,0.62-2.697,1.167-3.899
			c0.113-0.249,0.406-0.361,0.657-0.246c0.249,0.112,0.36,0.406,0.247,0.655c-0.51,1.123-0.877,2.352-1.09,3.651
			C7.141,34.228,6.93,34.4,6.691,34.4L6.691,34.4z M9.329,28.078c-0.104,0-0.208-0.033-0.297-0.099
			c-0.22-0.165-0.265-0.475-0.1-0.693c0.799-1.064,1.767-2.038,2.877-2.897c0.217-0.167,0.529-0.128,0.697,0.088
			c0.167,0.216,0.128,0.527-0.089,0.695c-1.04,0.805-1.946,1.715-2.691,2.707C9.63,28.007,9.48,28.078,9.329,28.078L9.329,28.078z
			 M14.616,23.667c-0.177,0-0.349-0.095-0.438-0.262c-0.13-0.241-0.039-0.541,0.203-0.671c1.142-0.61,2.399-1.141,3.737-1.575
			c0.264-0.085,0.541,0.058,0.625,0.318c0.084,0.261-0.058,0.539-0.318,0.623c-1.282,0.416-2.486,0.923-3.576,1.507
			C14.774,23.648,14.695,23.667,14.616,23.667L14.616,23.667z M21.155,21.366c-0.23,0-0.437-0.16-0.485-0.394
			c-0.055-0.27,0.117-0.53,0.385-0.586c2.327-0.481,3.971-0.527,4.041-0.529c0.31,0.009,0.501,0.21,0.508,0.482
			c0.007,0.273-0.209,0.5-0.483,0.509c-0.016,0-1.632,0.046-3.864,0.509C21.221,21.361,21.188,21.366,21.155,21.366L21.155,21.366z"
			/>
	</g>
	<g>
		<path fill="#9B9B9A" d="M194.477,59.499c-0.182,0-0.355-0.101-0.442-0.272c-0.123-0.245-0.025-0.543,0.22-0.665
			c1.103-0.554,2.129-1.138,3.052-1.737c0.229-0.147,0.537-0.086,0.686,0.145c0.149,0.229,0.084,0.536-0.145,0.684
			c-0.953,0.62-2.013,1.223-3.146,1.793C194.629,59.482,194.553,59.499,194.477,59.499L194.477,59.499z M199.969,55.968
			c-0.141,0-0.28-0.061-0.379-0.176c-0.177-0.209-0.151-0.521,0.058-0.698c1.043-0.88,1.931-1.816,2.642-2.783
			c0.164-0.223,0.477-0.27,0.694-0.106c0.221,0.162,0.27,0.472,0.106,0.691c-0.759,1.03-1.701,2.024-2.801,2.954
			C200.196,55.93,200.082,55.968,199.969,55.968L199.969,55.968z M204.166,50.529c-0.065,0-0.131-0.014-0.193-0.039
			c-0.252-0.105-0.371-0.396-0.265-0.648c0.493-1.169,0.776-2.405,0.842-3.674c0.013-0.271,0.214-0.504,0.52-0.469
			c0.273,0.014,0.484,0.246,0.471,0.519c-0.068,1.383-0.378,2.731-0.917,4.008C204.543,50.416,204.358,50.529,204.166,50.529
			L204.166,50.529z M204.833,43.732c-0.233,0-0.441-0.166-0.486-0.404c-0.223-1.189-0.62-2.417-1.181-3.648
			c-0.113-0.248-0.003-0.542,0.246-0.656c0.25-0.109,0.543-0.004,0.657,0.246c0.595,1.304,1.017,2.608,1.254,3.877
			c0.05,0.269-0.127,0.528-0.396,0.577C204.894,43.729,204.863,43.732,204.833,43.732L204.833,43.732z M202.19,37.362
			c-0.164,0-0.323-0.081-0.419-0.229c-1.195-1.875-2.343-3.053-2.354-3.064c-0.191-0.195-0.188-0.509,0.008-0.7
			c0.195-0.193,0.51-0.188,0.701,0.007c0.05,0.05,1.228,1.256,2.483,3.225c0.147,0.23,0.078,0.537-0.152,0.684
			C202.374,37.336,202.282,37.362,202.19,37.362L202.19,37.362z"/>
	</g>
</g>
</svg>
