<svg width="25" height="25" viewBox="0 0 25 25" fill="none" xmlns="http://www.w3.org/2000/svg">
<path d="M13.0027 6.8454C9.59744 6.8454 6.85075 9.59208 6.85075 12.9973C6.85075 16.4026 9.59744 19.1492 13.0027 19.1492C16.4079 19.1492 19.1546 16.4026 19.1546 12.9973C19.1546 9.59208 16.4079 6.8454 13.0027 6.8454ZM13.0027 16.9969C10.8021 16.9969 9.00312 15.2032 9.00312 12.9973C9.00312 10.7914 10.7968 8.99777 13.0027 8.99777C15.2086 8.99777 17.0022 10.7914 17.0022 12.9973C17.0022 15.2032 15.2032 16.9969 13.0027 16.9969V16.9969ZM20.8412 6.59375C20.8412 7.39152 20.1987 8.02867 19.4062 8.02867C18.6085 8.02867 17.9713 7.38617 17.9713 6.59375C17.9713 5.80134 18.6138 5.15884 19.4062 5.15884C20.1987 5.15884 20.8412 5.80134 20.8412 6.59375ZM24.9157 8.05008C24.8247 6.12794 24.3856 4.42532 22.9775 3.02253C21.5747 1.61974 19.8721 1.1807 17.9499 1.08433C15.9689 0.971891 10.0311 0.971891 8.05008 1.08433C6.1333 1.17535 4.43068 1.61439 3.02253 3.01718C1.61439 4.41997 1.1807 6.12259 1.08433 8.04473C0.971891 10.0258 0.971891 15.9635 1.08433 17.9446C1.17535 19.8667 1.61439 21.5693 3.02253 22.9721C4.43068 24.3749 6.12794 24.8139 8.05008 24.9103C10.0311 25.0228 15.9689 25.0228 17.9499 24.9103C19.8721 24.8193 21.5747 24.3803 22.9775 22.9721C24.3803 21.5693 24.8193 19.8667 24.9157 17.9446C25.0281 15.9635 25.0281 10.0311 24.9157 8.05008V8.05008ZM22.3564 20.0702C21.9388 21.1196 21.1303 21.9281 20.0755 22.351C18.496 22.9775 14.7481 22.8329 13.0027 22.8329C11.2572 22.8329 7.50396 22.9721 5.92984 22.351C4.88042 21.9334 4.07195 21.1249 3.64897 20.0702C3.02253 18.4907 3.16709 14.7428 3.16709 12.9973C3.16709 11.2519 3.02789 7.49861 3.64897 5.92448C4.06659 4.87507 4.87507 4.06659 5.92984 3.64361C7.50931 3.01718 11.2572 3.16174 13.0027 3.16174C14.7481 3.16174 18.5014 3.02253 20.0755 3.64361C21.1249 4.06124 21.9334 4.86972 22.3564 5.92448C22.9828 7.50396 22.8383 11.2519 22.8383 12.9973C22.8383 14.7428 22.9828 18.496 22.3564 20.0702Z" fill="white"/>
</svg>
