<svg width="36" height="36" viewBox="0 0 36 36" fill="none" xmlns="http://www.w3.org/2000/svg">
<rect width="36" height="36" rx="18" fill="#22C935"/>
<path d="M12.0625 16.75H8.9375C8.41973 16.75 8 17.1697 8 17.6875V27.0625C8 27.5803 8.41973 28 8.9375 28H12.0625C12.5803 28 13 27.5803 13 27.0625V17.6875C13 17.1697 12.5803 16.75 12.0625 16.75ZM10.5 26.4375C9.98223 26.4375 9.5625 26.0178 9.5625 25.5C9.5625 24.9822 9.98223 24.5625 10.5 24.5625C11.0178 24.5625 11.4375 24.9822 11.4375 25.5C11.4375 26.0178 11.0178 26.4375 10.5 26.4375ZM23 11.1817C23 12.8386 21.9856 13.768 21.7001 14.875H25.6737C26.9783 14.875 27.9939 15.9588 28 17.1445C28.0033 17.8452 27.7052 18.5995 27.2406 19.0662L27.2363 19.0705C27.6206 19.9821 27.5581 21.2595 26.8727 22.1748C27.2118 23.1863 26.8701 24.4288 26.2328 25.095C26.4007 25.7824 26.3205 26.3674 25.9927 26.8384C25.1954 27.9839 23.2194 28 21.5484 28L21.4373 28C19.5511 27.9993 18.0074 27.3125 16.767 26.7607C16.1436 26.4834 15.3286 26.1401 14.7103 26.1287C14.4548 26.1241 14.25 25.9156 14.25 25.6601V17.3097C14.25 17.1847 14.3001 17.0647 14.389 16.9768C15.9364 15.4478 16.6018 13.8289 17.8701 12.5584C18.4484 11.9791 18.6587 11.1039 18.862 10.2576C19.0357 9.53488 19.3991 8 20.1875 8C21.125 8 23 8.3125 23 11.1817Z" fill="white"/>
</svg>
