<svg width="19" height="30" viewBox="0 0 19 30" fill="none" xmlns="http://www.w3.org/2000/svg">
<g clip-path="url(#clip0_25_634)">
<path d="M11.4397 5.78001C12.8259 5.78001 13.9497 4.65624 13.9497 3.27001C13.9497 1.88377 12.8259 0.76001 11.4397 0.76001C10.0535 0.76001 8.92969 1.88377 8.92969 3.27001C8.92969 4.65624 10.0535 5.78001 11.4397 5.78001Z" stroke="white" stroke-miterlimit="10" stroke-linecap="round" stroke-linejoin="round"/>
<path d="M0.629883 14.6701C0.629883 14.6701 7.81988 18.1601 9.46988 8.80005C9.46988 8.80005 16.7899 4.41005 18.3699 15.3101" stroke="white" stroke-miterlimit="10" stroke-linecap="round" stroke-linejoin="round"/>
<path d="M6.55995 29.24C6.55995 29.24 6.02995 22.4099 11.3699 19.6399C16.7099 16.8699 14.5299 12.91 13.1499 7.94995L10.0699 8.65995C10.0699 8.65995 10.2899 17.77 11.0899 19.79" stroke="white" stroke-miterlimit="10" stroke-linecap="round" stroke-linejoin="round"/>
<path d="M12.6001 21.1699C12.6001 21.1699 13.7901 24.1699 17.4101 28.1299" stroke="white" stroke-miterlimit="10" stroke-linecap="round" stroke-linejoin="round"/>
</g>
<defs>
<clipPath id="clip0_25_634">
<rect width="18.74" height="29.48" fill="white" transform="translate(0.129883 0.26001)"/>
</clipPath>
</defs>
</svg>
